<?xml version="1.0" encoding="utf-8"?>
<!-- Generator: Adobe Illustrator 15.0.0, SVG Export Plug-In . SVG Version: 6.00 Build 0)  -->
<!DOCTYPE svg PUBLIC "-//W3C//DTD SVG 1.1//EN" "http://www.w3.org/Graphics/SVG/1.1/DTD/svg11.dtd">
<svg version="1.1" id="Calque_1" xmlns="http://www.w3.org/2000/svg" xmlns:xlink="http://www.w3.org/1999/xlink" x="0px" y="0px"
	 width="72px" height="72px" viewBox="0 0 72 72" enable-background="new 0 0 72 72" xml:space="preserve">
<g>
	<path fill="#FFFFFF" d="M44.764,50.785C44.739,42.147,54.458,31,54.458,23.975c0-10.204-8.271-18.475-18.475-18.475
		c-10.203,0-18.474,8.271-18.474,18.475c0,7.035,9.357,17.992,9.357,26.811C30.361,50.785,41.318,50.785,44.764,50.785z
		 M21.324,23.975c0-8.083,6.576-14.66,14.66-14.66c8.083,0,14.66,6.577,14.66,14.66c0,2.407-2.061,6.423-4.051,10.308
		c-2.139,4.169-4.33,8.447-5.225,12.688H30.279c-0.866-4.291-2.995-8.576-5.07-12.753C23.298,30.373,21.324,26.398,21.324,23.975z"
		/>
	<rect fill="#FFFFFF" x="26.866" y="53.33" width="17.813" height="3.814"/>
	<path fill="#FFFFFF" d="M35.743,64.31c7.609,0,8.906-4.623,8.906-4.623H26.836C26.836,59.687,28.133,64.31,35.743,64.31z"/>
</g>
</svg>
